S15T1V11.mot
version=1
nRows=33
nColumns=19
inDegrees=yes
endheader
time	ground_force_vx	ground_force_vy	ground_force_vz	ground_force_px	ground_force_py	ground_force_pz	1_ground_force_vx	1_ground_force_vy	1_ground_force_vz	1_ground_force_px	1_ground_force_py	1_ground_force_pz	ground_torque_x	ground_torque_y	ground_torque_z	1_ground_torque_x	1_ground_torque_y	1_ground_torque_z
0.000000	1.376375	-5.206023	-0.277871	0.450000	0.000000	-0.300000	-1.265234	-2.849050	1.493902	0.450000	0.000000	-0.299998	0.000000	-0.000000	0.000000	0.000000	-0.000011	0.000000
0.005000	1.583439	-6.091982	-0.820907	0.450000	0.000000	-0.300000	-1.179777	-4.796229	1.122769	0.450004	0.000000	-0.300001	0.000000	-0.000000	0.000000	0.000000	-0.000114	0.000000
0.010000	2.152708	-4.159919	-0.532312	0.450000	0.000000	-0.300000	-1.327253	-2.798003	0.459084	0.450001	0.000000	-0.300004	0.000000	-0.000000	0.000000	0.000000	0.000025	0.000000
0.015000	2.535750	-2.550488	0.247532	0.450000	0.000000	-0.300000	-1.097401	1.305346	0.641550	0.449991	0.000000	-0.299997	0.000000	-0.000000	0.000000	0.000000	0.000255	0.000000
0.020000	2.134888	-3.216015	0.197226	0.450000	0.000000	-0.300000	-0.180050	1.803659	1.195151	0.449998	0.000000	-0.299991	0.000000	-0.000000	0.000000	0.000000	-0.000057	0.000000
0.025000	1.573851	-3.548384	-0.600938	0.450000	0.000000	-0.300000	0.649975	-0.299972	1.086289	0.450021	0.000000	-0.300007	0.000000	-0.000000	0.000000	0.000000	-0.000570	0.000000
0.030000	1.790996	-1.507472	-0.455126	0.450000	0.000000	-0.300000	0.392111	0.512134	0.393628	0.450004	0.000000	-0.300021	0.000000	-0.000000	0.000000	0.000000	0.000127	0.000000
0.035000	2.439560	-0.257320	0.876330	0.450000	0.000000	-0.300000	-0.591367	3.781110	-0.145441	0.449953	0.000000	-0.299984	0.000000	-0.000000	0.000000	0.000000	0.001277	0.000000
0.040000	2.615939	-2.516169	1.618602	0.450000	0.000000	-0.300000	-0.818275	3.670961	-0.081221	0.449991	0.000000	-0.299954	0.000000	-0.000000	0.000000	0.000000	-0.000284	0.000000
0.045000	2.498591	-5.450817	0.960268	0.450000	0.000000	-0.300000	0.082023	-0.886215	0.705281	0.450105	0.000000	-0.300035	0.000000	-0.000000	0.000000	0.000000	-0.002861	0.000000
0.050000	2.871828	-5.921162	0.020024	0.450000	0.000000	-0.300000	0.630505	-3.899959	1.662605	0.450020	0.000000	-0.300103	0.000000	-0.000000	0.000000	0.000000	0.000636	0.000000
0.055000	3.451635	-5.141637	-0.167737	0.450000	0.000000	-0.300000	-0.241503	-1.762289	1.608700	0.449766	0.000000	-0.299922	0.000000	-0.000000	0.000000	0.000000	0.006407	0.000000
0.060000	3.144183	-4.811354	0.340025	0.450000	0.000000	-0.300000	-1.506632	0.868280	0.488807	0.449954	0.000000	-0.299769	0.000000	-0.000000	0.000000	0.000000	-0.001425	0.000000
0.065000	2.047781	-4.423239	0.973416	0.450000	0.000000	-0.300000	-1.743689	-1.287767	-0.028495	0.450525	0.000000	-0.300174	0.000000	-0.000000	0.000000	0.000000	-0.014351	0.000000
0.070000	1.572638	-4.374310	1.110673	0.450000	0.000000	-0.300000	-1.348131	-5.833050	0.755519	0.450103	0.000000	-0.300518	0.000000	-0.000000	0.000000	0.000000	0.003191	0.000000
0.075000	2.136123	-5.760495	0.598295	0.450000	0.000000	-0.300000	-1.490563	-7.193742	1.136594	0.448824	0.000000	-0.299609	0.000000	-0.000000	0.000000	0.000000	0.032144	0.000000
0.080000	2.573526	-6.622232	0.019252	0.450000	0.000000	-0.300000	-1.806573	-4.800153	0.054209	0.449770	0.000000	-0.298841	0.000000	-0.000000	0.000000	0.000000	-0.007147	0.000000
0.085000	2.268356	-4.565734	-0.214458	0.450000	0.000000	-0.300000	-1.103933	-1.795394	-0.688831	0.452636	0.000000	-0.300876	0.000000	-0.000000	0.000000	0.000000	-0.072019	0.000000
0.090000	1.905120	-1.470070	-0.435153	0.450000	0.000000	-0.300000	0.184830	0.686112	0.448556	0.450516	0.000000	-0.302598	0.000000	-0.000000	0.000000	0.000000	0.016010	0.000000
0.095000	1.886672	0.000960	-0.695607	0.450000	0.000000	-0.300000	0.354848	2.701776	1.423361	0.444061	0.000000	-0.298017	0.000000	-0.000000	0.000000	0.000000	0.161868	0.000000
0.100000	1.862392	0.326810	-0.286972	0.450000	0.000000	-0.300000	-0.700798	1.946176	-0.051601	0.448834	0.000000	-0.294143	0.000000	-0.000000	0.000000	0.000000	-0.035920	0.000000
0.105000	1.807065	-0.218412	0.895844	0.450000	0.000000	-0.300000	-0.774762	-2.392832	-0.872929	0.464187	0.000000	-0.304994	0.000000	-0.000000	0.000000	0.000000	-0.376628	0.000000
0.110000	1.996701	-2.330666	1.705176	0.450000	0.000000	-0.300000	0.796027	-4.069825	2.793388	0.452849	0.000000	-0.314041	0.000000	-0.000000	0.000000	0.000000	0.081969	0.000000
0.115000	2.119948	-3.685624	1.287261	0.450000	0.000000	-0.300000	-1.759206	5.193946	3.662823	0.395884	0.000000	-0.274866	0.000000	-0.000000	0.000000	0.000000	1.199219	0.000000
0.120000	1.711568	-1.606119	0.255511	0.450000	0.000000	-0.300000	-17.512620	26.700899	-9.601776	0.341876	0.000000	-0.182661	0.000000	-0.000000	0.000000	0.000000	1.299846	0.000000
0.125000	1.232315	1.135213	-0.284109	0.450000	0.000000	-0.300000	-43.540710	60.957741	-26.645563	0.343662	0.000000	-0.107197	0.000000	-0.000000	0.000000	0.000000	0.423215	0.000000
0.130000	1.597503	0.020559	-0.041341	0.450000	0.000000	-0.300000	-58.821625	130.008480	-23.701371	0.382767	0.000000	-0.108034	0.000000	-0.000000	0.000000	0.000000	1.625470	0.000000
0.135000	2.707785	-4.204179	0.484620	0.450000	0.000000	-0.300000	-56.363001	279.854287	-11.653713	0.411757	0.000000	-0.154207	0.000000	-0.000000	0.000000	0.000000	6.304188	0.000000
0.140000	3.402071	-7.548498	0.726538	0.450000	0.000000	-0.300000	-74.700034	529.747154	-27.231658	0.422954	0.000000	-0.177875	0.000000	-0.000000	0.000000	0.000000	11.719997	0.000000
0.145000	2.947134	-8.762835	0.553273	0.450000	0.000000	-0.300000	-146.528116	819.724023	-51.390926	0.431330	0.000000	-0.170464	0.000000	-0.000000	0.000000	0.000000	16.513657	0.000000
0.150000	1.845657	-9.581095	0.337608	0.450000	0.000000	-0.300000	-217.738350	1048.025381	-12.169456	0.437215	0.000000	-0.171749	0.000000	-0.000000	0.000000	0.000000	23.551997	0.000000
0.155000	1.168621	-10.698924	0.487853	0.450000	0.000000	-0.300000	-197.662629	1165.153260	92.314602	0.436081	0.000000	-0.193334	0.000000	-0.000000	0.000000	0.000000	33.106748	0.000000
0.160000	1.561597	-9.647785	0.896119	0.450000	0.000000	-0.300000	-98.093616	1198.447156	165.818031	0.433572	0.000000	-0.208361	0.000000	-0.000000	0.000000	0.000000	39.545017	0.000000
